    <!-- Lucide-derived inline icon sprite (stroke icons; inherit currentColor) -->
    <svg width="0" height="0" style="position: absolute" aria-hidden="true">
      <defs>
        <symbol id="i-menu" viewBox="0 0 24 24">
          <line x1="4" y1="6" x2="20" y2="6" />
          <line x1="4" y1="12" x2="20" y2="12" />
          <line x1="4" y1="18" x2="20" y2="18" />
        </symbol>
        <symbol id="i-play" viewBox="0 0 24 24">
          <polygon points="6 4 20 12 6 20 6 4" fill="currentColor" stroke="none" />
        </symbol>
        <symbol id="i-search" viewBox="0 0 24 24">
          <circle cx="11" cy="11" r="7" />
          <line x1="21" y1="21" x2="16.65" y2="16.65" />
        </symbol>
        <symbol id="i-x" viewBox="0 0 24 24">
          <line x1="6" y1="6" x2="18" y2="18" />
          <line x1="6" y1="18" x2="18" y2="6" />
        </symbol>
        <symbol id="i-trash" viewBox="0 0 24 24">
          <polyline points="3 6 5 6 21 6" />
          <path d="M19 6l-1 14a2 2 0 0 1-2 2H8a2 2 0 0 1-2-2L5 6" />
          <path d="M10 11v6" />
          <path d="M14 11v6" />
          <path d="M9 6V4a1 1 0 0 1 1-1h4a1 1 0 0 1 1 1v2" />
        </symbol>
        <symbol id="i-chev-right" viewBox="0 0 24 24"><polyline points="9 6 15 12 9 18" /></symbol>
        <symbol id="i-chev-down" viewBox="0 0 24 24"><polyline points="6 9 12 15 18 9" /></symbol>
        <symbol id="i-folder" viewBox="0 0 24 24">
          <path d="M3 7a2 2 0 0 1 2-2h4l2 2h8a2 2 0 0 1 2 2v9a2 2 0 0 1-2 2H5a2 2 0 0 1-2-2z" />
        </symbol>
        <symbol id="i-folder-plus" viewBox="0 0 24 24">
          <path d="M3 7a2 2 0 0 1 2-2h4l2 2h8a2 2 0 0 1 2 2v9a2 2 0 0 1-2 2H5a2 2 0 0 1-2-2z" />
          <line x1="12" y1="11" x2="12" y2="17" />
          <line x1="9" y1="14" x2="15" y2="14" />
        </symbol>
        <symbol id="i-file-plus" viewBox="0 0 24 24">
          <path d="M14 3H6a2 2 0 0 0-2 2v14a2 2 0 0 0 2 2h12a2 2 0 0 0 2-2V9z" />
          <polyline points="14 3 14 9 20 9" />
          <line x1="12" y1="13" x2="12" y2="19" />
          <line x1="9" y1="16" x2="15" y2="16" />
        </symbol>
        <symbol id="i-refresh" viewBox="0 0 24 24">
          <polyline points="23 4 23 10 17 10" />
          <polyline points="1 20 1 14 7 14" />
          <path d="M3.51 9a9 9 0 0 1 14.85-3.36L23 10M1 14l4.64 4.36A9 9 0 0 0 20.49 15" />
        </symbol>
        <symbol id="i-more" viewBox="0 0 24 24">
          <circle cx="5" cy="12" r="1.5" fill="currentColor" />
          <circle cx="12" cy="12" r="1.5" fill="currentColor" />
          <circle cx="19" cy="12" r="1.5" fill="currentColor" />
        </symbol>
        <symbol id="i-sun" viewBox="0 0 24 24">
          <circle cx="12" cy="12" r="4" />
          <line x1="12" y1="2" x2="12" y2="4" />
          <line x1="12" y1="20" x2="12" y2="22" />
          <line x1="4.93" y1="4.93" x2="6.34" y2="6.34" />
          <line x1="17.66" y1="17.66" x2="19.07" y2="19.07" />
          <line x1="2" y1="12" x2="4" y2="12" />
          <line x1="20" y1="12" x2="22" y2="12" />
          <line x1="4.93" y1="19.07" x2="6.34" y2="17.66" />
          <line x1="17.66" y1="6.34" x2="19.07" y2="4.93" />
        </symbol>
        <symbol id="i-moon" viewBox="0 0 24 24"><path d="M21 12.79A9 9 0 1 1 11.21 3 7 7 0 0 0 21 12.79z" /></symbol>
        <symbol id="i-download" viewBox="0 0 24 24">
          <path d="M21 15v4a2 2 0 0 1-2 2H5a2 2 0 0 1-2-2v-4" />
          <polyline points="7 10 12 15 17 10" />
          <line x1="12" y1="15" x2="12" y2="3" />
        </symbol>
        <symbol id="i-upload" viewBox="0 0 24 24">
          <path d="M21 15v4a2 2 0 0 1-2 2H5a2 2 0 0 1-2-2v-4" />
          <polyline points="17 8 12 3 7 8" />
          <line x1="12" y1="3" x2="12" y2="15" />
        </symbol>
        <symbol id="i-book-open" viewBox="0 0 24 24">
          <path d="M2 4h7a3 3 0 0 1 3 3v13a2 2 0 0 0-2-2H2z" />
          <path d="M22 4h-7a3 3 0 0 0-3 3v13a2 2 0 0 1 2-2h8z" />
        </symbol>
        <symbol id="i-message" viewBox="0 0 24 24">
          <path d="M21 15a2 2 0 0 1-2 2H7l-4 4V5a2 2 0 0 1 2-2h14a2 2 0 0 1 2 2z" />
        </symbol>
        <symbol id="i-settings" viewBox="0 0 24 24">
          <circle cx="12" cy="12" r="3" />
          <path
            d="M19.4 15a1.65 1.65 0 0 0 .33 1.82l.06.06a2 2 0 1 1-2.83 2.83l-.06-.06a1.65 1.65 0 0 0-1.82-.33 1.65 1.65 0 0 0-1 1.51V21a2 2 0 1 1-4 0v-.09A1.65 1.65 0 0 0 9 19.4a1.65 1.65 0 0 0-1.82.33l-.06.06a2 2 0 1 1-2.83-2.83l.06-.06a1.65 1.65 0 0 0 .33-1.82 1.65 1.65 0 0 0-1.51-1H3a2 2 0 1 1 0-4h.09A1.65 1.65 0 0 0 4.6 9a1.65 1.65 0 0 0-.33-1.82l-.06-.06a2 2 0 1 1 2.83-2.83l.06.06a1.65 1.65 0 0 0 1.82.33H9a1.65 1.65 0 0 0 1-1.51V3a2 2 0 1 1 4 0v.09a1.65 1.65 0 0 0 1 1.51 1.65 1.65 0 0 0 1.82-.33l.06-.06a2 2 0 1 1 2.83 2.83l-.06.06a1.65 1.65 0 0 0-.33 1.82V9a1.65 1.65 0 0 0 1.51 1H21a2 2 0 1 1 0 4h-.09a1.65 1.65 0 0 0-1.51 1z"
          />
        </symbol>
        <symbol id="i-terminal" viewBox="0 0 24 24">
          <polyline points="4 17 10 11 4 5" />
          <line x1="12" y1="19" x2="20" y2="19" />
        </symbol>
        <symbol id="i-square" viewBox="0 0 24 24"><rect x="4" y="4" width="16" height="16" rx="2" /></symbol>
        <symbol id="i-circle-slash" viewBox="0 0 24 24">
          <circle cx="12" cy="12" r="9" />
          <line x1="5.6" y1="5.6" x2="18.4" y2="18.4" />
        </symbol>
        <symbol id="i-rotate" viewBox="0 0 24 24">
          <polyline points="1 4 1 10 7 10" />
          <path d="M3.51 15a9 9 0 1 0 2.13-9.36L1 10" />
        </symbol>
        <symbol id="i-eye" viewBox="0 0 24 24">
          <path d="M2 12s3.5-7 10-7 10 7 10 7-3.5 7-10 7-10-7-10-7z" />
          <circle cx="12" cy="12" r="3" />
        </symbol>
        <symbol id="i-zap" viewBox="0 0 24 24"><polygon points="13 2 3 14 12 14 11 22 21 10 12 10 13 2" /></symbol>
        <symbol id="i-edit" viewBox="0 0 24 24">
          <path d="M11 4H4a2 2 0 0 0-2 2v14a2 2 0 0 0 2 2h14a2 2 0 0 0 2-2v-7" />
          <path d="M18.5 2.5a2.121 2.121 0 0 1 3 3L12 15l-4 1 1-4 9.5-9.5z" />
        </symbol>
        <symbol id="i-copy" viewBox="0 0 24 24">
          <rect x="9" y="9" width="13" height="13" rx="2" />
          <path d="M5 15H4a2 2 0 0 1-2-2V4a2 2 0 0 1 2-2h9a2 2 0 0 1 2 2v1" />
        </symbol>
        <symbol id="i-file-text" viewBox="0 0 24 24">
          <path d="M14 3H6a2 2 0 0 0-2 2v14a2 2 0 0 0 2 2h12a2 2 0 0 0 2-2V9z" />
          <polyline points="14 3 14 9 20 9" />
          <line x1="8" y1="13" x2="16" y2="13" />
          <line x1="8" y1="17" x2="13" y2="17" />
        </symbol>
        <symbol id="i-link" viewBox="0 0 24 24">
          <path d="M10 13a5 5 0 0 0 7.54.54l3-3a5 5 0 0 0-7.07-7.07l-1.72 1.71" />
          <path d="M14 11a5 5 0 0 0-7.54-.54l-3 3a5 5 0 0 0 7.07 7.07l1.71-1.71" />
        </symbol>
        <symbol id="i-fold" viewBox="0 0 24 24">
          <polyline points="17 11 12 6 7 11" />
          <polyline points="17 18 12 13 7 18" />
        </symbol>
      </defs>
    </svg>

